<svg width="64" height="64" viewBox="0 0 64 64" fill="none" xmlns="http://www.w3.org/2000/svg">
<line x1="20.5" y1="63.5" x2="20.5" y2="0.5" stroke="#FFFFFE" stroke-linecap="round"/>
<line x1="42.5" y1="63.5" x2="42.5" y2="0.5" stroke="#FFFFFE" stroke-linecap="round"/>
<line x1="0.5" y1="20.5" x2="63.5" y2="20.5" stroke="#FFFFFE" stroke-linecap="round"/>
<line x1="0.5" y1="42.5" x2="63.5" y2="42.5" stroke="#FFFFFE" stroke-linecap="round"/>
<path d="M33.7129 55.6914C33.7129 56.2109 33.5918 56.6523 33.3496 57.0156C33.1113 57.375 32.7871 57.6484 32.377 57.8359C31.9707 58.0234 31.5117 58.1172 31 58.1172C30.4883 58.1172 30.0273 58.0234 29.6172 57.8359C29.207 57.6484 28.8828 57.375 28.6445 57.0156C28.4062 56.6523 28.2871 56.2109 28.2871 55.6914C28.2871 55.3516 28.3516 55.041 28.4805 54.7598C28.6133 54.4746 28.7988 54.2266 29.0371 54.0156C29.2793 53.8047 29.5645 53.6426 29.8926 53.5293C30.2246 53.4121 30.5898 53.3535 30.9883 53.3535C31.5117 53.3535 31.9785 53.4551 32.3887 53.6582C32.7988 53.8574 33.1211 54.1328 33.3555 54.4844C33.5938 54.8359 33.7129 55.2383 33.7129 55.6914ZM32.623 55.668C32.623 55.3516 32.5547 55.0723 32.418 54.8301C32.2812 54.584 32.0898 54.3926 31.8438 54.2559C31.5977 54.1191 31.3125 54.0508 30.9883 54.0508C30.6562 54.0508 30.3691 54.1191 30.127 54.2559C29.8887 54.3926 29.7031 54.584 29.5703 54.8301C29.4375 55.0723 29.3711 55.3516 29.3711 55.668C29.3711 55.9961 29.4355 56.2773 29.5645 56.5117C29.6973 56.7422 29.8848 56.9199 30.127 57.0449C30.373 57.166 30.6641 57.2266 31 57.2266C31.3359 57.2266 31.625 57.166 31.8672 57.0449C32.1094 56.9199 32.2949 56.7422 32.4238 56.5117C32.5566 56.2773 32.623 55.9961 32.623 55.668ZM33.5137 51.6895C33.5137 52.1035 33.4043 52.4766 33.1855 52.8086C32.9668 53.1406 32.668 53.4023 32.2891 53.5938C31.9102 53.7852 31.4805 53.8809 31 53.8809C30.5117 53.8809 30.0762 53.7852 29.6934 53.5938C29.3145 53.4023 29.0176 53.1406 28.8027 52.8086C28.5879 52.4766 28.4805 52.1035 28.4805 51.6895C28.4805 51.1934 28.5879 50.7715 28.8027 50.4238C29.0215 50.0762 29.3203 49.8105 29.6992 49.627C30.0781 49.4434 30.5098 49.3516 30.9941 49.3516C31.4824 49.3516 31.916 49.4434 32.2949 49.627C32.6738 49.8105 32.9707 50.0762 33.1855 50.4238C33.4043 50.7715 33.5137 51.1934 33.5137 51.6895ZM32.4297 51.707C32.4297 51.4219 32.3691 51.1699 32.248 50.9512C32.127 50.7324 31.959 50.5605 31.7441 50.4355C31.5293 50.3066 31.2793 50.2422 30.9941 50.2422C30.709 50.2422 30.459 50.3027 30.2441 50.4238C30.0332 50.541 29.8672 50.709 29.7461 50.9277C29.6289 51.1465 29.5703 51.4062 29.5703 51.707C29.5703 52 29.6289 52.2559 29.7461 52.4746C29.8672 52.6934 30.0352 52.8633 30.25 52.9844C30.4648 53.1055 30.7148 53.166 31 53.166C31.2852 53.166 31.5332 53.1055 31.7441 52.9844C31.959 52.8633 32.127 52.6934 32.248 52.4746C32.3691 52.2559 32.4297 52 32.4297 51.707Z" fill="#FFFFFE"/>
<path d="M13.0996 33.1289V34.0195H6.93555V33.3809L10.7559 27.4688H11.6406L10.6914 29.1797L8.16602 33.1289H13.0996ZM11.9102 27.4688V36H10.8262V27.4688H11.9102Z" fill="#FFFFFE"/>
</svg>
