<svg width="29" height="28" viewBox="0 0 29 28" fill="none" xmlns="http://www.w3.org/2000/svg">
<path d="M15.1802 3.5H19.8468V5.83333H15.1802V3.5ZM3.51351 9.33333H8.18018V11.6667H3.51351V9.33333ZM3.51351 18.6667H8.18018V21H3.51351V18.6667ZM2.34685 14H7.00185V16.3333H2.34685V14ZM25.3384 7.82483L23.6887 6.17517L21.6972 8.16667C20.435 7.40385 18.9883 7.00043 17.5135 7C13.0113 7 9.34685 10.6645 9.34685 15.1667C9.34685 19.6688 13.0113 23.3333 17.5135 23.3333C22.0157 23.3333 25.6802 19.6688 25.6802 15.1667C25.679 13.1204 24.9062 11.1498 23.516 9.64833L25.3384 7.82483ZM18.6802 16.3333H16.3468V10.451H18.6802V16.3333Z" fill="#FFFFFE"/>
</svg>
